<svg width="1920" height="2827" viewBox="0 0 1920 2827" fill="none" xmlns="http://www.w3.org/2000/svg">
<g clip-path="url(#clip0_360_18603)">
<rect width="1920" height="2827" fill="url(#paint0_linear_360_18603)"/>
<path d="M1672 139C1683.5 140.5 1686 153.5 1686 162.5C1686 163.517 1687.65 164.113 1688.37 163.392C1692.15 159.59 1696.91 158.639 1701.5 159.5C1707.2 160.377 1710.59 166.251 1711.34 173.752C1711.47 175 1712.48 176 1713.74 176C1714.74 176 1715.62 175.348 1715.99 174.418C1720.29 163.698 1729.81 161.125 1735.5 162C1736.4 162.208 1737.23 162.475 1737.98 162.803C1745.96 166.28 1751.44 176 1760.14 176H1763C1763.42 176 1763.83 176.005 1764.25 176.002C1768.79 175.965 1770.5 179.51 1770.87 183.386C1771.26 187.334 1768.57 190.647 1764.62 191.03C1760.41 191.437 1753.89 191.346 1744.42 190H1640C1636.13 190 1633 186.866 1633 183C1633 179.134 1636.13 176 1640 176C1645.98 176 1650.22 169.786 1650.02 163.805C1650.01 163.373 1650 162.938 1650 162.5C1650 147.864 1662.06 139 1672 139Z" fill="#FCFCED"/>
<path d="M90.9502 199C99.7816 200.152 101.702 210.135 101.702 217.047C101.702 217.828 102.968 218.285 103.52 217.732C106.427 214.812 110.08 214.082 113.605 214.743C117.982 215.416 120.587 219.928 121.162 225.688C121.258 226.647 122.039 227.415 123.003 227.415C123.773 227.415 124.449 226.914 124.735 226.2C128.035 217.968 135.347 215.991 139.717 216.663C147.312 218.416 152.848 227.415 160.642 227.415H160.836C161.156 227.415 161.478 227.419 161.799 227.416C164.72 227.394 166.114 229.304 166.658 231.676C167.546 235.542 164.619 238.852 160.658 239.062C157.442 239.233 152.848 239.059 146.564 238.166H66.376C63.4072 238.166 61.0002 235.76 61 232.791C61 229.822 63.407 227.415 66.376 227.415C70.9717 227.415 74.2238 222.643 74.0722 218.05C74.0612 217.718 74.0557 217.383 74.0557 217.047C74.0559 205.808 83.3159 199 90.9502 199Z" fill="#FCFCED"/>
<path d="M-34.0498 395C-25.2184 396.152 -23.2979 406.135 -23.2979 413.047C-23.2979 413.828 -22.0318 414.285 -21.4805 413.732C-18.5727 410.812 -14.9203 410.082 -11.3945 410.743C-7.01775 411.416 -4.41337 415.928 -3.838 421.688C-3.74221 422.647 -2.9609 423.415 -1.99713 423.415C-1.22735 423.415 -0.551247 422.914 -0.264851 422.2C3.0347 413.968 10.3467 411.991 14.7168 412.663C22.3119 414.416 27.8475 423.415 35.6423 423.415H35.8359C36.1561 423.415 36.4784 423.419 36.7986 423.416C39.7198 423.394 41.114 425.304 41.6585 427.676C42.5457 431.542 39.619 434.852 35.6585 435.062C32.4418 435.233 27.8481 435.059 21.5645 434.166H-58.624C-61.5928 434.166 -63.9998 431.76 -64 428.791C-64 425.822 -61.593 423.415 -58.624 423.415C-54.0283 423.415 -50.7762 418.643 -50.9278 414.05C-50.9388 413.718 -50.9443 413.383 -50.9443 413.047C-50.9441 401.808 -41.6841 395 -34.0498 395Z" fill="#FCFCED"/>
<path d="M229.95 496C238.782 497.152 240.702 507.135 240.702 514.047C240.702 514.828 241.968 515.285 242.52 514.732C245.427 511.812 249.08 511.082 252.605 511.743C256.982 512.416 259.587 516.928 260.162 522.688C260.258 523.647 261.039 524.415 262.003 524.415C262.773 524.415 263.449 523.914 263.735 523.2C267.035 514.968 274.347 512.991 278.717 513.663C286.312 515.416 291.848 524.415 299.642 524.415H299.836C300.156 524.415 300.478 524.419 300.799 524.416C303.72 524.394 305.114 526.304 305.658 528.676C306.546 532.542 303.619 535.852 299.658 536.062C296.442 536.233 291.848 536.059 285.564 535.166H205.376C202.407 535.166 200 532.76 200 529.791C200 526.822 202.407 524.415 205.376 524.415C209.972 524.415 213.224 519.643 213.072 515.05C213.061 514.718 213.056 514.383 213.056 514.047C213.056 502.808 222.316 496 229.95 496Z" fill="#FCFCED"/>
<path d="M1277.16 67C1283.1 67.7754 1284.39 74.4943 1284.39 79.1455C1284.39 79.6714 1285.24 79.9792 1285.61 79.6066C1287.57 77.6414 1290.03 77.1498 1292.4 77.5947C1295.35 78.0478 1297.1 81.0836 1297.49 84.9601C1297.55 85.6053 1298.08 86.1221 1298.73 86.1221C1299.24 86.1221 1299.7 85.785 1299.89 85.3043C1302.11 79.7646 1307.03 78.4343 1309.97 78.8867C1315.08 80.0665 1318.81 86.1221 1324.06 86.1221H1324.19C1324.4 86.1221 1324.62 86.1246 1324.83 86.1229C1325.95 86.1136 1326.73 86.5245 1327.27 87.174C1329.8 90.2295 1326.02 94.0458 1322.05 93.9975C1320.1 93.9738 1317.64 93.7922 1314.58 93.3574H1260.62C1258.62 93.3574 1257 91.7381 1257 89.7402C1257 87.7422 1258.62 86.1221 1260.62 86.1221C1263.71 86.1221 1265.9 82.9105 1265.8 79.8189C1265.79 79.5958 1265.79 79.3713 1265.79 79.1455C1265.79 71.5816 1272.02 67 1277.16 67Z" fill="#FCFCED"/>
<path d="M425.95 111C434.782 112.152 436.702 122.135 436.702 129.047C436.702 129.828 437.968 130.285 438.52 129.732C441.427 126.812 445.08 126.082 448.605 126.743C452.982 127.416 455.587 131.928 456.162 137.688C456.258 138.647 457.039 139.415 458.003 139.415C458.773 139.415 459.449 138.914 459.735 138.2C463.035 129.968 470.347 127.991 474.717 128.663C482.312 130.416 487.848 139.415 495.642 139.415H495.836C496.156 139.415 496.478 139.419 496.799 139.416C499.72 139.394 501.114 141.304 501.658 143.676C502.546 147.542 499.619 150.852 495.658 151.062C492.442 151.233 487.848 151.059 481.564 150.166H401.376C398.407 150.166 396 147.76 396 144.791C396 141.822 398.407 139.415 401.376 139.415C405.972 139.415 409.224 134.643 409.072 130.05C409.061 129.718 409.056 129.383 409.056 129.047C409.056 117.808 418.316 111 425.95 111Z" fill="#FCFCED"/>
<path d="M820.95 191C829.782 192.152 831.702 202.135 831.702 209.047C831.702 209.828 832.968 210.285 833.52 209.732C836.427 206.812 840.08 206.082 843.605 206.743C847.982 207.416 850.587 211.928 851.162 217.688C851.258 218.647 852.039 219.415 853.003 219.415C853.773 219.415 854.449 218.914 854.735 218.2C858.035 209.968 865.347 207.991 869.717 208.663C877.312 210.416 882.848 219.415 890.642 219.415H890.836C891.156 219.415 891.478 219.419 891.799 219.416C894.72 219.394 896.114 221.304 896.658 223.676C897.546 227.542 894.619 230.852 890.658 231.062C887.442 231.233 882.848 231.059 876.564 230.166H796.376C793.407 230.166 791 227.76 791 224.791C791 221.822 793.407 219.415 796.376 219.415C800.972 219.415 804.224 214.643 804.072 210.05C804.061 209.718 804.056 209.383 804.056 209.047C804.056 197.808 813.316 191 820.95 191Z" fill="#FCFCED"/>
<path d="M1826.16 413C1832.1 413.775 1833.39 420.494 1833.39 425.146C1833.39 425.671 1834.24 425.979 1834.61 425.607C1836.57 423.641 1839.03 423.15 1841.4 423.595C1844.35 424.048 1846.1 427.084 1846.49 430.96C1846.55 431.605 1847.08 432.122 1847.73 432.122C1848.24 432.122 1848.7 431.785 1848.89 431.304C1851.11 425.765 1856.03 424.434 1858.97 424.887C1864.08 426.066 1867.81 432.122 1873.06 432.122H1873.19C1873.4 432.122 1873.62 432.125 1873.83 432.123C1874.95 432.114 1875.73 432.525 1876.27 433.174C1878.8 436.23 1875.02 440.046 1871.05 439.998C1869.1 439.974 1866.64 439.792 1863.58 439.357H1809.62C1807.62 439.357 1806 437.738 1806 435.74C1806 433.742 1807.62 432.122 1809.62 432.122C1812.71 432.122 1814.9 428.91 1814.8 425.819C1814.79 425.596 1814.79 425.371 1814.79 425.146C1814.79 417.582 1821.02 413 1826.16 413Z" fill="#FCFCED"/>
</g>
<defs>
<linearGradient id="paint0_linear_360_18603" x1="960" y1="-193.682" x2="960" y2="2827" gradientUnits="userSpaceOnUse">
<stop stop-color="#BBDDFF"/>
<stop offset="0.274038" stop-color="#F7FBFF"/>
<stop offset="1" stop-color="white"/>
</linearGradient>
<clipPath id="clip0_360_18603">
<rect width="1920" height="2827" fill="white"/>
</clipPath>
</defs>
</svg>
