<svg width="24" height="24" viewBox="0 0 24 24" fill="none" xmlns="http://www.w3.org/2000/svg">
<path d="M3 4L19.6667 20.6667" stroke="#4B4B4B" stroke-width="1.4" stroke-linecap="round" stroke-linejoin="round"/>
<path d="M6.92731 7.9355C4.38732 9.66272 3 12.3333 3 12.3333C3 12.3333 6.0303 18.1667 11.3333 18.1667C13.0419 18.1667 14.5145 17.5612 15.7259 16.7403M10.5 6.54852C10.7712 6.51677 11.049 6.5 11.3333 6.5C16.6363 6.5 19.6667 12.3333 19.6667 12.3333C19.6667 12.3333 19.0902 13.4431 18 14.6946" stroke="#4B4B4B" stroke-width="1.4" stroke-linecap="round" stroke-linejoin="round"/>
<path d="M13.0007 14.1976C12.5583 14.5934 11.9743 14.8342 11.334 14.8342C9.95323 14.8342 8.83398 13.7149 8.83398 12.3342C8.83398 11.6477 9.11059 11.026 9.55842 10.5742" stroke="#4B4B4B" stroke-width="1.4" stroke-linecap="round" stroke-linejoin="round"/>
</svg>
