<svg width="122" height="122" viewBox="0 0 122 122" fill="none" xmlns="http://www.w3.org/2000/svg">
<mask id="mask0_509_4392" style="mask-type:alpha" maskUnits="userSpaceOnUse" x="0" y="0" width="122" height="122">
<path d="M122 61C122 94.6894 94.6894 122 61 122C27.3106 122 0 94.6894 0 61C0 27.3106 27.3106 0 61 0C94.6894 0 122 27.3106 122 61Z" fill="#70ACDE"/>
</mask>
<g mask="url(#mask0_509_4392)">
<circle cx="60.8703" cy="61.1442" r="61.0001" fill="#CDE7FF"/>
<circle cx="60.8703" cy="61.1442" r="61.0001" fill="url(#paint0_linear_509_4392)" fill-opacity="0.1"/>
<path d="M-0.792899 5.89962C15.0204 -7.91443 37.5341 -8.01537 49.4927 5.67396C58.3505 15.8137 58.9322 30.6751 52.2123 43.3143C52.092 43.5406 52.127 43.8186 52.2956 44.0116C58.2005 50.7711 56.6575 61.7803 48.8492 68.6013C41.041 75.4223 29.9244 75.4722 24.0196 68.7128C22.4721 66.9414 20.2504 65.6989 17.9023 65.8367C8.08289 66.4128 -1.36159 63.0378 -7.77255 55.699C-19.7311 42.0096 -16.6062 19.7137 -0.792899 5.89962Z" fill="#DAF5EB"/>
<path d="M89.3183 16.5418C96.3644 15.0258 103.14 18.7416 104.453 24.8413C105.765 30.941 101.117 37.1147 94.0709 38.6308C93.0113 38.8588 91.9577 38.9684 90.9279 38.9694C88.6192 38.9717 86.2836 39.5054 84.0917 40.2305C80.7874 41.3235 77.2487 40.633 75.0806 38.1511C72.054 34.6864 72.8448 29.0433 76.847 25.5471C77.0186 25.3972 77.1932 25.2538 77.3706 25.1167C78.7976 24.0144 80.1415 22.7517 81.2787 21.3524C83.1618 19.0353 85.9692 17.2624 89.3183 16.5418Z" fill="#DAF5EB"/>
<path d="M77.6946 65.6369C86.1222 63.8236 94.4443 69.2799 96.2826 77.824C96.2838 77.8295 96.2871 77.8343 96.2919 77.8372C99.4492 79.7121 101.78 82.6787 102.566 86.3299C103.775 91.9518 100.978 97.601 95.9544 100.843C95.9304 100.859 95.9332 100.895 95.9594 100.907C95.9861 100.918 96.0023 100.947 95.9773 100.962C94.7359 101.697 68.6375 116.923 54.172 105.143C51.5578 103.266 49.6547 100.573 48.96 97.3442C47.3456 89.8408 52.8687 82.2881 61.2962 80.4748C61.3138 80.4711 61.3314 80.4673 61.3489 80.4636C63.5874 79.989 65.4778 78.2373 66.1905 76.0629C67.8687 70.9423 72.1021 66.8402 77.6946 65.6369Z" fill="#DAF5EB"/>
<path d="M45.115 39.0516C45.115 40.7478 43.74 42.1228 42.0438 42.1228C40.3477 42.1228 38.9727 40.7478 38.9727 39.0516C38.9727 37.3555 40.3477 35.9805 42.0438 35.9805C43.74 35.9805 45.115 37.3555 45.115 39.0516Z" fill="#9297A3"/>
<path d="M65.659 39.0516C65.659 40.7478 64.2839 42.1228 62.5878 42.1228C60.8916 42.1228 59.5166 40.7478 59.5166 39.0516C59.5166 37.3555 60.8916 35.9805 62.5878 35.9805C64.2839 35.9805 65.659 37.3555 65.659 39.0516Z" fill="#9297A3"/>
<path d="M57.9071 51.8803C58.9641 52.3969 60.2519 51.999 60.8279 50.9578C61.4038 49.9166 61.0565 48.6143 60.0572 47.9934L59.9583 47.9354C52.9304 44.0479 46.1789 46.1839 43.392 47.9367L43.2623 48.0198L43.168 48.085C42.2171 48.7778 41.9665 50.1023 42.6175 51.0983C43.2686 52.0942 44.5826 52.3963 45.5988 51.8032L45.696 51.743L45.7781 51.6904C47.5529 50.5787 52.5461 48.918 57.8055 51.8274L57.9071 51.8803Z" fill="#9297A3"/>
<path d="M71.0224 47.1449C69.4327 46.3174 68.6339 44.4763 67.9555 42.1453C67.8633 41.8285 68.1028 41.5127 68.4326 41.5227C69.9888 41.5699 73.3562 41.8689 74.2674 43.7663C75.3491 46.0187 73.1857 48.2711 71.0224 47.1449Z" fill="#94BDF6"/>
</g>
<defs>
<linearGradient id="paint0_linear_509_4392" x1="51.4909" y1="28.6713" x2="96.9988" y2="108.14" gradientUnits="userSpaceOnUse">
<stop stop-color="white"/>
<stop offset="1" stop-color="#2887D7"/>
</linearGradient>
</defs>
</svg>
