<svg width="266" height="266" viewBox="0 0 266 266" fill="none" xmlns="http://www.w3.org/2000/svg">
<rect width="266" height="266" fill="#F6F6F6"/>
<path d="M87.0964 183V166.698H90.4184L95.1484 175.388L96.7764 178.908H96.8864C96.7324 177.214 96.4684 175.058 96.4684 173.21V166.698H99.5484V183H96.2484L91.5404 174.288L89.8904 170.79H89.7804C89.9344 172.55 90.1764 174.596 90.1764 176.466V183H87.0964ZM107.689 183.308C104.609 183.308 101.771 180.932 101.771 176.84C101.771 172.748 104.609 170.372 107.689 170.372C110.769 170.372 113.607 172.748 113.607 176.84C113.607 180.932 110.769 183.308 107.689 183.308ZM107.689 180.668C109.361 180.668 110.307 179.172 110.307 176.84C110.307 174.53 109.361 173.012 107.689 173.012C106.017 173.012 105.071 174.53 105.071 176.84C105.071 179.172 106.017 180.668 107.689 180.668ZM120.021 183V166.698H123.277V183H120.021ZM126.249 183V170.68H128.889L129.131 172.33H129.197C130.231 171.252 131.375 170.372 132.981 170.372C134.741 170.372 135.775 171.164 136.369 172.528C137.491 171.34 138.679 170.372 140.285 170.372C142.903 170.372 144.113 172.22 144.113 175.322V183H140.879V175.718C140.879 173.804 140.329 173.144 139.163 173.144C138.459 173.144 137.667 173.606 136.787 174.53V183H133.575V175.718C133.575 173.804 133.003 173.144 131.837 173.144C131.133 173.144 130.341 173.606 129.483 174.53V183H126.249ZM149.72 183.308C147.52 183.308 146.068 181.746 146.068 179.656C146.068 177.016 148.202 175.63 153.174 175.102C153.108 173.892 152.58 172.968 151.062 172.968C149.918 172.968 148.818 173.474 147.674 174.134L146.508 172C147.96 171.098 149.72 170.372 151.656 170.372C154.78 170.372 156.386 172.242 156.386 175.806V183H153.746L153.526 181.68H153.438C152.36 182.604 151.128 183.308 149.72 183.308ZM150.776 180.778C151.7 180.778 152.382 180.338 153.174 179.568V177.082C150.16 177.456 149.148 178.292 149.148 179.392C149.148 180.36 149.83 180.778 150.776 180.778ZM163.246 188.346C160.342 188.346 158.098 187.356 158.098 185.178C158.098 184.144 158.736 183.264 159.858 182.626V182.516C159.22 182.098 158.736 181.46 158.736 180.448C158.736 179.524 159.374 178.666 160.122 178.138V178.05C159.264 177.434 158.472 176.268 158.472 174.816C158.472 171.934 160.826 170.372 163.444 170.372C164.126 170.372 164.786 170.504 165.292 170.68H169.736V173.056H167.646C167.954 173.474 168.196 174.156 168.196 174.926C168.196 177.698 166.084 179.106 163.444 179.106C162.96 179.106 162.388 178.996 161.86 178.82C161.53 179.106 161.332 179.37 161.332 179.876C161.332 180.536 161.816 180.888 163.268 180.888H165.358C168.328 180.888 169.956 181.812 169.956 183.968C169.956 186.454 167.36 188.346 163.246 188.346ZM163.444 177.104C164.522 177.104 165.38 176.29 165.38 174.816C165.38 173.386 164.544 172.572 163.444 172.572C162.344 172.572 161.508 173.386 161.508 174.816C161.508 176.29 162.366 177.104 163.444 177.104ZM163.73 186.3C165.578 186.3 166.854 185.486 166.854 184.518C166.854 183.638 166.128 183.418 164.808 183.418H163.312C162.564 183.418 162.036 183.352 161.596 183.242C161.046 183.682 160.804 184.166 160.804 184.672C160.804 185.706 161.948 186.3 163.73 186.3ZM176.228 183.308C172.774 183.308 170.09 180.91 170.09 176.84C170.09 172.858 172.906 170.372 175.832 170.372C179.22 170.372 180.98 172.858 180.98 176.246C180.98 176.862 180.914 177.456 180.826 177.742H173.236C173.5 179.766 174.82 180.822 176.646 180.822C177.658 180.822 178.538 180.514 179.418 179.964L180.518 181.944C179.308 182.78 177.746 183.308 176.228 183.308ZM173.192 175.586H178.208C178.208 173.936 177.46 172.88 175.876 172.88C174.578 172.88 173.434 173.804 173.192 175.586Z" fill="#9297A3" fill-opacity="0.52"/>
<g style="mix-blend-mode:luminosity">
<mask id="mask0_1171_13626" style="mask-type:alpha" maskUnits="userSpaceOnUse" x="92" y="72" width="81" height="81">
<path d="M173 112.044C173 134.16 155.072 152.088 132.956 152.088C110.84 152.088 92.9121 134.16 92.9121 112.044C92.9121 89.9283 110.84 72 132.956 72C155.072 72 173 89.9283 173 112.044Z" fill="#70ACDE"/>
</mask>
<g mask="url(#mask0_1171_13626)">
<circle cx="132.871" cy="112.151" r="40.044" fill="#CDE7FF"/>
<circle cx="132.871" cy="112.151" r="40.044" fill="url(#paint0_linear_1171_13626)" fill-opacity="0.1"/>
<path d="M92.3917 75.8722C102.773 66.8039 117.552 66.7376 125.402 75.7241C131.217 82.3804 131.599 92.1363 127.187 100.433C127.108 100.582 127.131 100.764 127.242 100.891V100.891C131.118 105.328 130.105 112.556 124.98 117.033C119.854 121.511 112.556 121.544 108.68 117.106V117.106C107.664 115.944 106.206 115.128 104.664 115.218C98.2183 115.597 92.0184 113.381 87.8099 108.563C79.9596 99.5769 82.0109 84.9405 92.3917 75.8722Z" fill="#DAF5EB"/>
<path d="M151.546 82.859C156.171 81.8639 160.619 84.3031 161.481 88.3073C162.342 92.3115 159.291 96.3643 154.666 97.3596C153.97 97.5092 153.278 97.5812 152.602 97.5818C151.087 97.5833 149.553 97.9337 148.115 98.4097C145.945 99.1272 143.622 98.6739 142.199 97.0447C140.212 94.7702 140.731 91.0658 143.359 88.7706C143.471 88.6723 143.586 88.5781 143.702 88.4881C144.639 87.7645 145.521 86.9356 146.268 86.017C147.504 84.4959 149.347 83.3321 151.546 82.859Z" fill="#DAF5EB"/>
<path d="M143.915 115.086C149.448 113.895 154.911 117.477 156.118 123.086V123.086C156.118 123.09 156.12 123.093 156.124 123.095C158.196 124.326 159.726 126.273 160.242 128.67C161.036 132.36 159.2 136.069 155.902 138.197C155.886 138.208 155.888 138.231 155.905 138.239V138.239C155.923 138.246 155.933 138.265 155.917 138.275C155.102 138.758 137.97 148.753 128.474 141.02C126.758 139.788 125.508 138.02 125.052 135.9C123.992 130.975 127.618 126.017 133.15 124.826C133.162 124.824 133.173 124.821 133.185 124.819C134.654 124.507 135.895 123.357 136.363 121.93C137.465 118.569 140.244 115.876 143.915 115.086Z" fill="#DAF5EB"/>
<path d="M122.529 97.6352C122.529 98.7487 121.626 99.6513 120.513 99.6513C119.399 99.6513 118.497 98.7487 118.497 97.6352C118.497 96.5218 119.399 95.6191 120.513 95.6191C121.626 95.6191 122.529 96.5218 122.529 97.6352Z" fill="#9297A3"/>
<path d="M136.014 97.6352C136.014 98.7487 135.111 99.6513 133.998 99.6513C132.885 99.6513 131.982 98.7487 131.982 97.6352C131.982 96.5218 132.885 95.6191 133.998 95.6191C135.111 95.6191 136.014 96.5218 136.014 97.6352Z" fill="#9297A3"/>
<path d="M130.926 106.057C131.62 106.396 132.465 106.135 132.843 105.452C133.221 104.768 132.993 103.913 132.337 103.505L132.272 103.467C127.659 100.915 123.227 102.318 121.397 103.468L121.312 103.523L121.25 103.566C120.626 104.02 120.462 104.89 120.889 105.544C121.316 106.198 122.179 106.396 122.846 106.006L122.91 105.967L122.964 105.932C124.129 105.203 127.407 104.113 130.859 106.022L130.926 106.057Z" fill="#9297A3"/>
<path d="M139.536 102.948C138.541 102.431 138.019 101.31 137.586 99.8822C137.491 99.5663 137.731 99.2504 138.06 99.2667C139.151 99.3204 141.108 99.57 141.666 100.731C142.376 102.209 140.956 103.688 139.536 102.948Z" fill="#94BDF6"/>
</g>
</g>
<defs>
<linearGradient id="paint0_linear_1171_13626" x1="126.714" y1="90.8344" x2="156.588" y2="143.002" gradientUnits="userSpaceOnUse">
<stop stop-color="white"/>
<stop offset="1" stop-color="#2887D7"/>
</linearGradient>
</defs>
</svg>
