<svg width="134" height="16" viewBox="0 0 134 16" fill="none" xmlns="http://www.w3.org/2000/svg">
<path d="M128.545 6.52324C126.822 6.52324 125.992 7.67065 125.992 9.88048V10.3054C125.992 12.579 126.734 13.6627 128.436 13.6627C130.247 13.6627 131.294 12.3878 131.294 10.7942V8.83931C131.294 7.75565 130.443 6.52324 128.545 6.52324ZM132.625 0C133.345 0 134 0.361222 134 1.12616V14.8101C134 15.5538 133.367 15.8938 132.691 15.8938C132.036 15.8938 131.404 15.5538 131.404 14.8101V14.3851H131.338C130.705 15.5113 129.331 15.9363 127.891 15.9363C124.858 15.9363 123.265 14.0027 123.265 10.3692V9.81673C123.265 6.11952 125.185 4.22842 128.087 4.22842C129.985 4.22842 130.902 4.97211 131.251 5.48207V1.12616C131.251 0.361222 131.927 0 132.625 0Z" fill="#1F1F22"/>
<path d="M115.841 10.9431C114.401 10.9431 113.899 11.5168 113.899 12.4305V12.473C113.899 13.2804 114.466 13.7054 115.535 13.7054C116.386 13.7054 117.041 13.5779 117.564 13.2804C118.263 12.8767 118.546 12.388 118.546 11.4956V10.9431H115.841ZM116.408 4.22864C119.223 4.22864 121.252 5.60978 121.252 7.96835V14.8741C121.252 15.5753 120.641 15.894 120.008 15.894C119.375 15.894 118.765 15.5753 118.765 14.8741V14.3216H118.743C118.525 14.8103 118.066 15.1715 117.455 15.469C116.888 15.7452 116.059 15.9365 115.317 15.9365C112.721 15.9365 111.237 14.7041 111.237 12.6005V12.2605C111.237 10.3269 112.371 8.88203 115.775 8.88203H118.524V8.58455C118.524 7.13966 117.87 6.54471 116.386 6.54471C115.404 6.54471 114.466 6.79969 113.593 7.30965C113.004 7.64962 112.393 7.45839 112.044 6.90593C111.717 6.37472 111.782 5.71602 112.35 5.3548C113.397 4.67486 114.881 4.22864 116.408 4.22864Z" fill="#1F1F22"/>
<path d="M98.0624 4.22864C99.5461 4.22864 100.833 4.95109 101.27 6.0135C102.121 4.84484 103.19 4.22864 105.001 4.22864C107.226 4.22864 109.146 5.71602 109.146 8.64829V14.7678C109.146 15.5328 108.492 15.894 107.772 15.894C107.074 15.894 106.397 15.5328 106.397 14.7678V9.20075C106.397 7.09717 105.372 6.60845 104.215 6.60845C103.146 6.60845 102.012 7.16091 102.012 9.11576V14.7678C102.012 15.5328 101.357 15.894 100.637 15.894C99.9388 15.894 99.2624 15.5328 99.2624 14.7678V9.15825C99.2624 7.18216 98.3024 6.60845 97.0805 6.60845C95.7932 6.60845 94.8768 7.39464 94.8768 9.00952V14.7678C94.8768 15.5328 94.2222 15.894 93.5022 15.894C92.804 15.894 92.1276 15.5328 92.1276 14.7678V5.4398C92.1276 4.6961 92.7603 4.35613 93.4149 4.35613C94.0913 4.35613 94.724 4.6961 94.724 5.4398V6.03475C95.3568 4.88734 96.535 4.22864 98.0624 4.22864Z" fill="#1F1F22"/>
<path d="M84.2859 4.22864C87.8206 4.22864 89.9152 6.16224 89.9152 9.81695V10.3482C89.9152 14.0029 87.8206 15.9365 84.2859 15.9365C80.7512 15.9365 78.6565 14.0029 78.6565 10.3482V9.81695C78.6565 6.16224 80.7512 4.22864 84.2859 4.22864ZM84.2859 6.56596C82.3221 6.56596 81.4276 7.56463 81.4276 9.85945V10.3057C81.4276 12.6005 82.3221 13.5992 84.2859 13.5992C86.2496 13.5992 87.1442 12.6005 87.1442 10.3057V9.85945C87.1442 7.56463 86.2496 6.56596 84.2859 6.56596Z" fill="#1F1F22"/>
<path d="M75.041 0.531208C75.6956 0.531208 76.3284 0.871181 76.3284 1.63612V14.0452C76.3284 15.3838 75.8702 15.8088 74.4737 15.8088C73.4046 15.8088 72.99 15.5963 71.8773 13.6627L67.7534 6.48074C67.3171 5.7158 66.9679 4.99336 66.7061 4.03718V14.7888C66.7061 15.5538 66.0734 15.8938 65.4188 15.8938C64.7642 15.8938 64.1315 15.5538 64.1315 14.7888V2.37981C64.1315 1.04117 64.5897 0.616202 65.9861 0.616202C67.0552 0.616202 67.4698 0.849933 68.5826 2.76228L72.7064 9.94422C73.1428 10.7092 73.4919 11.4316 73.7537 12.3878V1.63612C73.7537 0.871181 74.3865 0.531208 75.041 0.531208Z" fill="#1F1F22"/>
<path d="M59.7814 0C60.5014 0 61.156 0.361222 61.156 1.14741V14.7463C61.156 15.5325 60.5014 15.8938 59.7814 15.8938C59.0614 15.8938 58.4068 15.5325 58.4068 14.7463V1.14741C58.4068 0.361222 59.0614 0 59.7814 0Z" fill="#1F1F22"/>
<path d="M50.328 10.9431C48.8879 10.9431 48.3861 11.5168 48.3861 12.4305V12.473C48.3861 13.2804 48.9534 13.7054 50.0225 13.7054C50.8735 13.7054 51.528 13.5779 52.0517 13.2804C52.7499 12.8767 53.0335 12.388 53.0335 11.4956V10.9431H50.328ZM50.8953 4.22864C53.7099 4.22864 55.7391 5.60978 55.7391 7.96835V14.8741C55.7391 15.5753 55.1282 15.894 54.4954 15.894C53.8627 15.894 53.2517 15.5753 53.2517 14.8741V14.3216H53.2299C53.0117 14.8103 52.5535 15.1715 51.9426 15.469C51.3753 15.7452 50.5462 15.9365 49.8043 15.9365C47.2078 15.9365 45.7241 14.7041 45.7241 12.6005V12.2605C45.7241 10.3269 46.8587 8.88203 50.2625 8.88203H53.0117V8.58455C53.0117 7.13966 52.3572 6.54471 50.8735 6.54471C49.8916 6.54471 48.9534 6.79969 48.0806 7.30965C47.4915 7.64962 46.8806 7.45839 46.5314 6.90593C46.2042 6.37472 46.2696 5.71602 46.8369 5.3548C47.8842 4.67486 49.3679 4.22864 50.8953 4.22864Z" fill="#1F1F22"/>
<path d="M34.7866 0C35.5066 0 36.1612 0.361222 36.1612 1.12616V5.63081C36.9467 4.5259 38.4958 4.22842 39.4559 4.22842C42.5978 4.22842 44.147 6.16202 44.147 9.79549V10.3479C44.147 14.0452 42.2269 15.9363 39.3249 15.9363C37.7321 15.9363 36.6412 15.2988 36.0957 14.4064H36.0303V14.8101C36.0303 15.5538 35.3975 15.8938 34.7211 15.8938C34.0447 15.8938 33.412 15.5538 33.412 14.8101V1.12616C33.412 0.361222 34.0883 0 34.7866 0ZM38.9104 6.52324C37.0776 6.52324 36.1175 7.6919 36.1175 9.28553V11.2616C36.1175 12.4303 37.3176 13.6627 38.9758 13.6627C40.5686 13.6627 41.4196 12.5153 41.4196 10.2842V9.85923C41.4196 7.67065 40.7214 6.52324 38.9104 6.52324Z" fill="#1F1F22"/>
<path d="M25.5703 4.22864C29.105 4.22864 31.1996 6.16224 31.1996 9.81695V10.3482C31.1996 14.0029 29.105 15.9365 25.5703 15.9365C22.0356 15.9365 19.9409 14.0029 19.9409 10.3482V9.81695C19.9409 6.16224 22.0356 4.22864 25.5703 4.22864ZM25.5703 6.56596C23.6065 6.56596 22.7119 7.56463 22.7119 9.85945V10.3057C22.7119 12.6005 23.6065 13.5992 25.5703 13.5992C27.534 13.5992 28.4286 12.6005 28.4286 10.3057V9.85945C28.4286 7.56463 27.534 6.56596 25.5703 6.56596Z" fill="#1F1F22"/>
<path d="M16.3545 0C17.0745 0 17.7291 0.361222 17.7291 1.14741V14.7463C17.7291 15.5325 17.0745 15.8938 16.3545 15.8938C15.6345 15.8938 14.9799 15.5325 14.9799 14.7463V1.14741C14.9799 0.361222 15.6345 0 16.3545 0Z" fill="#1F1F22"/>
<path d="M7.00394 0.424967C9.05494 0.424967 10.495 0.892429 11.5205 1.57238C12.1751 2.01859 12.2187 2.74103 11.8041 3.31474C11.3896 3.88845 10.735 4.03718 10.1895 3.69721C9.3604 3.18725 8.33491 2.88977 7.00394 2.88977C4.08018 2.88977 2.81467 4.07968 2.81467 7.98938V8.43559C2.81467 12.3453 4.01472 13.5352 7.13485 13.5352C8.20399 13.5352 8.94584 13.4077 9.75315 13.089V9.5405H7.30941C6.63301 9.5405 6.32755 9.0093 6.32755 8.39309C6.32755 7.79814 6.63301 7.26693 7.30941 7.26693H10.6696C12.066 7.26693 12.5242 7.6919 12.5242 9.03054V13.2377C12.5242 14.3214 12.1969 14.8526 11.2587 15.2351C10.1023 15.7025 8.5531 16 7.04758 16C2.48738 16 0 14.0239 0 8.64807V7.77689C0 2.40106 2.48738 0.424967 7.00394 0.424967Z" fill="#1F1F22"/>
</svg>
