<svg width="88" height="88" viewBox="0 0 88 88" fill="none" xmlns="http://www.w3.org/2000/svg">
<mask id="mask0_360_12037" style="mask-type:alpha" maskUnits="userSpaceOnUse" x="5" y="13" width="62" height="62">
<path d="M66.2141 44.0011C66.2141 60.6879 52.6869 74.2151 36.0001 74.2151C19.3134 74.2151 5.78613 60.6879 5.78613 44.0011C5.78613 27.3144 19.3134 13.7871 36.0001 13.7871C52.6869 13.7871 66.2141 27.3144 66.2141 44.0011Z" fill="#70ACDE"/>
</mask>
<g mask="url(#mask0_360_12037)">
<circle cx="35.9265" cy="44.1711" r="34.5324" fill="#FF8F8F"/>
<ellipse cx="30.8824" cy="39.454" rx="2.03618" ry="5.66299" fill="white"/>
<path d="M32.8479 39.8625C32.8479 38.108 32.4552 36.623 31.9253 35.6517C31.6618 35.1687 31.3999 34.8774 31.2017 34.7237C31.017 34.5805 30.9278 34.5834 30.919 34.5834C30.9102 34.5834 30.821 34.5805 30.6362 34.7237C30.438 34.8774 30.1762 35.1687 29.9126 35.6517C29.3827 36.623 28.9901 38.108 28.9901 39.8625C28.9901 41.617 29.3827 43.102 29.9126 44.0733C30.1762 44.5563 30.438 44.8476 30.6362 45.0013C30.821 45.1445 30.9102 45.1416 30.919 45.1416V47.2347L30.7118 47.2252C28.6554 47.034 27.0067 44.0115 26.9024 40.242L26.897 39.8625C26.897 35.7909 28.6977 32.4902 30.919 32.4902C33.1403 32.4902 34.941 35.7909 34.941 39.8625L34.9355 40.242C34.8278 44.1373 33.0708 47.2347 30.919 47.2347V45.1416C30.9278 45.1416 31.0169 45.1445 31.2017 45.0013C31.3999 44.8476 31.6618 44.5563 31.9253 44.0733C32.4552 43.102 32.8479 41.617 32.8479 39.8625Z" fill="#1F1F22"/>
<path d="M27.0637 31.1195C27.0637 32.0668 26.2958 32.8347 25.3485 32.8347C24.4012 32.8347 23.6333 32.0668 23.6333 31.1195C23.6333 30.1722 24.4012 29.4043 25.3485 29.4043C26.2958 29.4043 27.0637 30.1722 27.0637 31.1195Z" fill="#1F1F22"/>
<path d="M38.5354 31.1195C38.5354 32.0668 37.7675 32.8347 36.8202 32.8347C35.8729 32.8347 35.105 32.0668 35.105 31.1195C35.105 30.1722 35.8729 29.4043 36.8202 29.4043C37.7675 29.4043 38.5354 30.1722 38.5354 31.1195Z" fill="#1F1F22"/>
</g>
<path d="M80.0241 21.5983L75.0188 21.0682C74.4779 21.011 73.977 21.1233 73.5919 21.348C72.6441 21.9008 72.8226 23.261 72.772 24.3571L72.0167 40.7144C71.9661 41.8105 71.8993 43.054 72.7351 43.7649C73.7231 44.6052 75.4023 44.8164 76.5873 44.2534C77.6071 43.769 77.873 42.5173 78.1108 41.4136L81.4647 25.8448C81.7441 24.5477 82.4907 22.9195 81.4459 22.1015C81.1278 21.8525 80.665 21.666 80.0241 21.5983Z" fill="#1F1F22"/>
<path d="M77.1485 51.6716C77.0366 53.3861 75.556 54.6854 73.8415 54.5735C72.127 54.4617 70.8277 52.9811 70.9396 51.2666C71.0514 49.552 72.532 48.2528 74.2465 48.3646C75.9611 48.4765 77.2603 49.9571 77.1485 51.6716Z" fill="#1F1F22"/>
</svg>
