<svg width="20" height="20" viewBox="0 0 20 20" fill="none" xmlns="http://www.w3.org/2000/svg">
<path d="M5.83301 9.16602H7.49967V10.8327H5.83301V9.16602ZM5.83301 12.4993H7.49967V14.166H5.83301V12.4993ZM9.16634 9.16602H10.833V10.8327H9.16634V9.16602ZM9.16634 12.4993H10.833V14.166H9.16634V12.4993ZM12.4997 9.16602H14.1663V10.8327H12.4997V9.16602ZM12.4997 12.4993H14.1663V14.166H12.4997V12.4993Z" fill="#707177"/>
<path d="M4.16667 18.3327H15.8333C16.7525 18.3327 17.5 17.5852 17.5 16.666V4.99935C17.5 4.08018 16.7525 3.33268 15.8333 3.33268H14.1667V1.66602H12.5V3.33268H7.5V1.66602H5.83333V3.33268H4.16667C3.2475 3.33268 2.5 4.08018 2.5 4.99935V16.666C2.5 17.5852 3.2475 18.3327 4.16667 18.3327ZM15.8333 6.66602L15.8342 16.666H4.16667V6.66602H15.8333Z" fill="#707177"/>
</svg>
