<svg width="26" height="26" viewBox="0 0 26 26" fill="none" xmlns="http://www.w3.org/2000/svg">
<rect width="26" height="26" rx="13" fill="#1F1F22"/>
<path d="M16.536 15.3573L16.5935 15.4206C16.8603 15.7479 16.841 16.2308 16.536 16.5358C16.2309 16.8409 15.7481 16.8602 15.4207 16.5934L15.3574 16.5358L9.46489 10.6433C9.13945 10.3179 9.13945 9.79022 9.46489 9.46478C9.79033 9.13934 10.318 9.13934 10.6434 9.46478L16.536 15.3573Z" fill="white"/>
<path d="M10.6434 16.5358L10.5801 16.5934C10.2528 16.8602 9.76993 16.8409 9.46489 16.5358C9.15985 16.2308 9.14053 15.7479 9.40735 15.4206L9.46489 15.3573L15.3574 9.46478C15.6829 9.13934 16.2105 9.13934 16.536 9.46478C16.8614 9.79022 16.8614 10.3179 16.536 10.6433L10.6434 16.5358Z" fill="white"/>
</svg>
