<svg width="40" height="40" viewBox="0 0 40 40" fill="none" xmlns="http://www.w3.org/2000/svg">
<g opacity="0.3">
<path d="M22.0277 30.135L22.0178 30.3429C21.9138 31.3646 21.0502 32.1618 20.001 32.1618C18.9518 32.1618 18.0882 31.3646 17.9841 30.3429L17.9742 30.135L17.9742 9.86744C17.9742 8.74809 18.8816 7.84068 20.001 7.84068C21.1203 7.84068 22.0277 8.74809 22.0277 9.86744V30.135Z" fill="black"/>
<path d="M9.86718 22.028L9.65936 22.0181C8.63761 21.9141 7.84042 21.0504 7.84042 20.0012C7.84042 18.952 8.63761 18.0884 9.65936 17.9844L9.86718 17.9745L30.1348 17.9745C31.2541 17.9745 32.1615 18.8819 32.1615 20.0012C32.1615 21.1206 31.2541 22.028 30.1348 22.028L9.86718 22.028Z" fill="black"/>
</g>
<path d="M22.0277 30.135L22.0178 30.3429C21.9138 31.3646 21.0502 32.1618 20.001 32.1618C18.9518 32.1618 18.0882 31.3646 17.9841 30.3429L17.9742 30.135L17.9742 9.86744C17.9742 8.74809 18.8816 7.84068 20.001 7.84068C21.1203 7.84068 22.0277 8.74809 22.0277 9.86744V30.135Z" fill="black"/>
<path d="M9.86718 22.028L9.65936 22.0181C8.63761 21.9141 7.84042 21.0504 7.84042 20.0012C7.84042 18.952 8.63761 18.0884 9.65936 17.9844L9.86718 17.9745L30.1348 17.9745C31.2541 17.9745 32.1615 18.8819 32.1615 20.0012C32.1615 21.1206 31.2541 22.028 30.1348 22.028L9.86718 22.028Z" fill="black"/>
</svg>
