<svg width="24" height="24" viewBox="0 0 24 24" fill="none" xmlns="http://www.w3.org/2000/svg">
<path d="M20.2474 3.03456C20.1784 3.01656 18.5054 2.60156 16.1954 2.60156C13.3534 2.60156 9.3274 3.24156 6.2854 6.28856C0.945402 11.6376 2.9454 19.8986 3.0334 20.2486C3.07765 20.4241 3.16874 20.5844 3.29696 20.7123C3.42517 20.8401 3.5857 20.9308 3.7614 20.9746C3.8304 20.9926 5.4874 21.4006 7.7794 21.4006C10.6284 21.4006 14.6634 20.7596 17.7114 17.7126C23.0464 12.3776 21.0624 4.11256 20.9754 3.76356C20.9311 3.58766 20.8401 3.42703 20.7119 3.29868C20.5838 3.17034 20.4232 3.07907 20.2474 3.03456ZM16.7104 12.2966L15.2964 13.7106L13.5034 11.9186L11.9174 13.5046L13.7094 15.2976L12.2954 16.7116L10.5034 14.9186L8.7104 16.7116L7.2964 15.2976L9.0894 13.5046L7.2964 11.7106L8.7104 10.2966L10.5034 12.0906L12.0894 10.5046L10.2954 8.71156L11.7094 7.29756L13.5034 9.09056L15.2964 7.29756L16.7104 8.71156L14.9174 10.5046L16.7104 12.2966Z" fill="white"/>
</svg>
