<svg width="24" height="24" viewBox="0 0 24 24" fill="none" xmlns="http://www.w3.org/2000/svg">
<path d="M21.9998 3.41039L21.8798 2.15039L20.6798 2.55039C18.6232 3.26494 16.4271 3.48421 14.2698 3.19039C12.003 2.8386 9.68274 3.15121 7.58982 4.09039C6.48029 4.56284 5.50657 5.30531 4.75729 6.2502C4.00801 7.19509 3.50698 8.3124 3.29982 9.50039C3.0312 11.0351 3.16558 12.6132 3.68982 14.0804C4.02737 13.3185 4.42182 12.5831 4.86982 11.8804C5.88602 10.3852 7.29409 9.19857 8.93982 8.45039C10.5253 7.72652 12.2582 7.38404 13.9998 7.45039C12.3418 7.70389 10.7548 8.29987 9.33982 9.20039C8.65729 9.62924 8.03225 10.1434 7.47982 10.7304C6.95148 11.3171 6.48564 11.9572 6.08982 12.6404C5.34635 14.0684 4.81733 15.5982 4.51982 17.1804C4.19913 18.7677 4.02506 20.3812 3.99982 22.0004H5.99982C6.09381 20.5482 6.29098 19.1046 6.58982 17.6804C7.97725 18.4296 9.53317 18.8117 11.1098 18.7904C12.5803 18.7894 14.0356 18.4936 15.3898 17.9204C22.9998 14.6704 21.9998 3.86039 21.9998 3.41039Z" fill="white"/>
</svg>
