<svg width="24" height="24" viewBox="0 0 24 24" fill="none" xmlns="http://www.w3.org/2000/svg">
<rect x="2" y="2" width="20" height="20" rx="10" fill="#E2E2E2"/>
<path fill-rule="evenodd" clip-rule="evenodd" d="M8.16737 8.16737C8.39053 7.94421 8.75233 7.94421 8.97549 8.16737L12 11.1919L15.0245 8.16737C15.2477 7.94421 15.6095 7.94421 15.8326 8.16737C16.0558 8.39053 16.0558 8.75233 15.8326 8.97549L12.8081 12L15.8326 15.0245C16.0558 15.2477 16.0558 15.6095 15.8326 15.8326C15.6095 16.0558 15.2477 16.0558 15.0245 15.8326L12 12.8081L8.97549 15.8326C8.75233 16.0558 8.39053 16.0558 8.16737 15.8326C7.94421 15.6095 7.94421 15.2477 8.16737 15.0245L11.1919 12L8.16737 8.97549C7.94421 8.75233 7.94421 8.39053 8.16737 8.16737Z" fill="black" stroke="black" stroke-width="0.4"/>
</svg>
