<svg width="24" height="24" viewBox="0 0 24 24" fill="none" xmlns="http://www.w3.org/2000/svg">
<path fill-rule="evenodd" clip-rule="evenodd" d="M14.8194 2.04564L3.25729 2.86302C2.32451 2.94022 2 3.52361 2 4.2228V16.3546C2 16.8992 2.20206 17.3651 2.68955 17.9879L5.40744 21.3705C5.85398 21.9151 6.25998 22.0319 7.11252 21.9931L20.5394 21.2151C21.6747 21.1377 22 20.6317 22 19.7765V6.12816C22 5.68617 21.8176 5.55877 21.2806 5.18158L17.4976 2.62883C16.6048 2.00744 16.2397 1.92904 14.8194 2.04564ZM7.41614 5.90476C6.31974 5.97536 6.07109 5.99136 5.4484 5.50677L3.86535 4.30159C3.70445 4.1456 3.78532 3.951 4.19069 3.9122L15.3057 3.13482C16.2391 3.05682 16.7251 3.36821 17.0902 3.64021L18.9965 4.96218C19.078 5.00158 19.2806 5.23418 19.0368 5.23418L7.55823 5.89556L7.41614 5.90476ZM6.13795 19.6599V8.07352C6.13795 7.56753 6.30031 7.33414 6.78634 7.29494L19.9702 6.55615C20.4174 6.51755 20.6194 6.78955 20.6194 7.29474V18.8039C20.6194 19.3099 20.5379 19.7379 19.8081 19.7765L7.19193 20.4765C6.46204 20.5151 6.13795 20.2825 6.13795 19.6599ZM18.5917 8.69471C18.6726 9.0447 18.5917 9.3947 18.226 9.4347L17.618 9.55009V18.1045C17.09 18.3765 16.6039 18.5319 16.1977 18.5319C15.5485 18.5319 15.3863 18.3373 14.9001 17.7545L10.9237 11.7667V17.5599L12.1816 17.8325C12.1816 17.8325 12.1816 18.5325 11.1667 18.5325L8.36877 18.6879C8.28727 18.5319 8.36877 18.1433 8.65232 18.0659L9.38304 17.8719V10.2121L8.36897 10.1335C8.28748 9.78349 8.49017 9.2781 9.05853 9.2389L12.0606 9.0455L16.1979 15.1108V9.74489L15.1433 9.62889C15.0618 9.2003 15.3863 8.88891 15.7917 8.85091L18.5917 8.69471Z" fill="#707177"/>
</svg>
