<svg width="24" height="24" viewBox="0 0 24 24" fill="none" xmlns="http://www.w3.org/2000/svg">
<path d="M12 0C18.6274 0 24 5.37256 24 12C24 18.6274 18.6274 24 12 24C5.37256 24 0 18.6274 0 12C5.15403e-07 5.37256 5.37256 0 12 0ZM17.8564 7.60645C17.363 7.16409 16.6045 7.20578 16.1621 7.69922L10.6406 13.8574L7.54785 11.1035C7.05284 10.6629 6.29417 10.7072 5.85352 11.2021C5.41285 11.6972 5.45715 12.4558 5.95215 12.8965L10.8311 17.2402L17.9492 9.30078C18.3913 8.80731 18.3498 8.04875 17.8564 7.60645Z" fill="#3D9EF2"/>
</svg>
