<svg width="22" height="22" viewBox="0 0 22 22" fill="none" xmlns="http://www.w3.org/2000/svg">
<rect x="-0.5" y="0.5" width="21" height="21" rx="10.5" transform="matrix(-1 -8.74228e-08 -8.74228e-08 1 21 1.87959e-06)" fill="white"/>
<rect x="-0.5" y="0.5" width="21" height="21" rx="10.5" transform="matrix(-1 -8.74228e-08 -8.74228e-08 1 21 1.87959e-06)" stroke="#EFEFEF"/>
<path d="M16 7.2L14.9286 7.2M14.9286 7.2L14.9286 14.5333C14.9286 15.3434 14.289 16 13.5 16L8.49999 16C7.711 16 7.07143 15.3434 7.07143 14.5333L7.07143 7.2M14.9286 7.2L7.07143 7.2M7.07143 7.2L6 7.2M13.1428 5L8.85714 5M12.4286 9.76667L12.4286 13.4333M9.57142 9.76667L9.57142 13.4333" stroke="#202020" stroke-linecap="round" stroke-linejoin="round"/>
</svg>
